<?xml version="1.0" encoding="utf-8"?>
<!-- Generator: Adobe Illustrator 19.0.0, SVG Export Plug-In . SVG Version: 6.00 Build 0)  -->
<svg version="1.1" id="Layer_1" xmlns="http://www.w3.org/2000/svg" xmlns:xlink="http://www.w3.org/1999/xlink" x="0px" y="0px"
	 viewBox="0 0 470 549" style="enable-background:new 0 0 470 549;" xml:space="preserve">
<g id="XMLID_1_">
	<path id="XMLID_170_" d="M464.4,408.3c-0.3,1.5-0.9,2.9-2,4.1c-4.6,4.9-11,7.9-17.4,9.7c-5.9,1.6-12.6,0.8-18.1,3.5
		c-4.2,2-8.3,4.2-12.6,5.8c-8.5,3.3-14.4,10-21.5,15.1c-11.3,8.2-22,17.4-35.5,21.9c-6.1,2-12.5,3.6-19,2.6
		c-2.6-0.4-5.1-1.8-7.6-2.6c-6.2-2-12.3-3.8-18.5-5.8c-0.7-0.2-1.2-0.9-1.8-1.3c-2-1.4-3.8-2.9-5.9-4.1c-2.6-1.5-5.4-2.6-8.1-3.9
		c-1.8-0.8-3.6-1.6-6.3-2.9c-0.8,4.9-1.4,9.3-2.1,13.6c-0.8,5-1.7,10.1-2.5,15.1c-0.1,0.5-0.4,1.1-0.3,1.6c1,6.4-1.9,12.3-1.8,18.7
		c0.1,5-1,10.1-1.2,15.1c-0.1,3.4,0.5,6.9,0.5,10.3c0,8.1-1.4,20-12,21.7c-1.1,0.2-2.1,0.2-3.2,0.1l-25.5-1
		c-0.8-2.9,0.5-5.9,1.8-8.6c3.9-7.8,8.9-15.1,12.7-23.1c3.7-7.9,6.2-16.9,4.5-25.5c-0.8-4.1-2.4-7.9-3.4-12
		c-0.5-2.1-2.2-28.6-3.4-28.3c-3.9,0.9-8,6.1-8.2,9.6c-0.1,2.1-0.9,4.2-1.6,6.2c-1.2,3.5-2.6,7-4,10.5c-1.6,4.1-3.9,16.5-10.2,16
		c-2.5-0.2-4.6-2-6.4-3.8c-1.8-1.8-3.5-3.8-5.8-4.7c-3.8-1.6-8.1,0-12,0.9c-12,2.9-24.5,0.6-36.9-0.3c-23.9-1.7-48.1,2.1-71.6-2.4
		c-3.6-0.7-7.2-1.6-10.2-3.7c-3-2.1-5.3-5.5-5.1-9.1l-3,1.7c0.5-3.3,1-6.7,1.5-10c0.2-1.1,0.3-2.4-0.2-3.4c-0.5-1.1-1.7-1.7-2.8-2.3
		c-5.3-2.7-10.6-5.4-15.8-8.1c-3.5-1.8-7.7-5.2-6.2-8.9c-1.9,1.3-4.2-1-5.4-3c-3-5.3-6.1-10.5-9.1-15.8c-2.4-4.1-4.8-8.3-5.6-13
		c-1.3-7.3,3.7-16.3,10.8-19.1c5-2,8.9-5.6,13.2-8.5c5.7-3.8,11.6-7.4,17.7-10.8c5-2.8,10.4-4.8,15.4-7.6
		c35.6-19.7,68.7-47.2,95.8-77.4c4.5-5,7.8-10,3.4-15.7c0.4-0.3,1.5-0.8,1.8-1.5c1.7-4-9.1-5.6-11.2-9.5c-1.6-3.1-1.9-6.6-2-10.1
		c-0.1-9.5,1.6-19,1.3-28.6c-0.4-13.8-7-28.7-20.6-34.1c-5.6-2.2-11.7-2.4-17.7-2.9c-33.9-2.6-67-14.2-95.1-33.4
		c-0.9-0.6-1.8-1.3-2.1-2.3c-0.3-1.1,0.3-2.3,0.8-3.3c3.2-5.9,6.4-11.7,9.6-17.6c-17-11.2-32.7-24.3-46.8-39
		C8,81.4,7,76.4,10.1,76.5c-6-3.8-1.9-9.4,0.3-6.5c-0.6-3.5,1.1-7.3,4.1-9.1c3,7.3,6,14.7,11.1,20.7C31,88,39.2,92.5,47.8,91.6
		c-6-5.1-11.6-10.4-16.2-16.9C41.9,79.1,50.8,86.5,57,95.8c1,1.5,2,3.1,3.4,4.1c3.3,2.2,8.5,0.1,9.3-3.8c14.9,8,28.8,17.6,41.4,28.8
		c8.1,7.2,16.1,15.2,26.4,18.6c16.2,5.3,33.5-2,50.5-2.8c-8-9-15.9-17.9-23.9-26.9c-18.7-21.1-27.9-52.5-32.6-79.8
		c-2.4-13.8,3-27.5,19.2-27.3C168.1,7,179.6,24.2,188,39.4c8.4,15.3,16.7,30.5,25.1,45.8c2.5,4.5,3.4,12.2-1.6,12.8
		c5.1,12.1,9,24.6,11.8,37.4c0.5,2.1,0.9,4.2,1.3,6.3c16.1-6.3,32.2-12.9,48.1-19.7c17.4-7.4,34.9-15.2,53.4-18.9
		c20.4-4,45.3-3,62.2,11c7.1,5.8,12,15.1,10.4,24.3c-7.9-0.8-14.8-7.5-17.5-14.9c0,3.3-5,3.4-8,2.1c-3-1.3-7.4-2.5-8.8,0.5
		c-1.9,4.3,0.5,13.6,0.7,18c-25.2-0.5-50.5,1.6-75.3,6.3c-10.7,2-22.8,5.7-26.9,15.8c-0.1,1.5-2.5-1.3-0.4-1.4c0.8,0,1.6,0.5,2,1.2
		c6.3,10.9,13,21.6,20.1,32c5.3,7.7,15.7,16.9,14.3,27.2c-1.5,11.2-17.7,15.9-19,27.2c-0.8,6.9,4.4,12,9.7,15.4
		c6.3,4.1,11.4,5.5,15.7,12.2c1.3,2,3.4,3.5,5.5,4.8c11.1,7,22.5,13.7,33.5,20.9c11.7,7.7,23.1,15.8,32.9,26.1
		c3.2,3.3,7.5,5.6,11.1,8.5c1.8,1.4,3,3.5,4.7,4.9c3.3,2.8,6.7,5.6,10.1,8.2c8.4,6.2,16.7,12.5,25.2,18.5c4.2,3,9,5,12.5,8.9
		c4.4,4.8,9,9.4,13.7,14c2.4,2.3,8.1,1.6,9.6,4.7c0.5,1,0.5,2.2,0.5,3.4C464.7,404.7,464.7,406.6,464.4,408.3z M232.2,252.3
		c-0.3,0.8-0.6,1.6-1,2.5c3.8-0.4,7-0.8,10.2-1.2c0.5-0.1,0.6-0.8,0.1-1l-3.2-1.3c3.2-0.3,6.4-0.3,9.6-0.9
		c6.3-1.2,12.6-2.8,18.9-4.1c2.7-0.5,3.5-1.7,2.8-4.4c-1-3.9-1.6-7.9-2.4-11.8c1.6,0.4,2.5,1.7,3.3,1.6c3.4-0.3,2.7,2.1,3,4
		c0.6,3.8,1.3,7.6,2.1,11.8c0.9-0.6,1.6-1,2.1-1.5c4.6-4.9,9.4-9.7,13.7-15c1.6-2,2.2-5,2.7-7.7c0.4-2.2-1-3.6-3.5-2.9
		c-3.6,1.1-7.3,2.1-10.8,3.4c-2.3,0.9-4.5,3.7-6.3,3.3c-4.1-0.7-6.9,1.3-10.1,2.8c-2.7,1.2-5.4,2.7-8.2,3.8
		c-2.9,1.2-4.8,0.3-5.7-2.6c-1.6-4.9-2.5-7.2-2.6-9.3c-0.3-6-3.7-16.6-9.8-35.3c-3.6-11-4.2-23-8.9-33.6c-0.1-0.2-0.6-1.2-0.2-2.1
		c0.3-0.7,1.6-2.5,2-1.5c3.2,8.8,5.2,16.4,7.1,22.9c1.1,3.9,1.5,10.8,3.9,18.6c2,6.5,1.9,5.3,2.9,8.9c0.7,2.6,5.6,18.5,7.4,29
		c0.5,2.7,2,3,4.1,1.8c11.6-6.4,24.1-10.1,37.7-13.7c-3.2-5-6.1-10.2-9.5-15c-6.3-9-13-17.8-19.4-26.8c-5.5-7.7-3-16.4,4.7-21.1
		c2.3-1.4,4.6-3.1,7.1-3.7c10.1-2.5,20.3-4.9,30.5-7c2.8-0.6,5.9,0.4,8.9,0.2c5-0.3,10.1,1.2,15-1.4c0.9-0.5,2.2-0.5,3.2-0.3
		c8.7,1.9,17.1-0.5,25.7-0.6c-1.9-6.1-3.7-11.8-5.3-17.5c-1.6-5.9-2.5-12,0.5-18.5c-2.9-0.5-5.6-1.4-8.1-1.2
		c-6.8,0.6-13.7,1.5-20.5,2.4c-4,0.6-8,1.4-12,2.1c0.2,0.5,0.5,0.9,0.7,1.4c-0.7,0.8-1.3,1.8-2.1,2.4c-1,0.7-2.3,0.9-3.4,1.3
		c-5.7,2.2-11.5,4.2-17.1,6.5c-6.1,2.6-12,5.7-18.2,8.1c-11.4,4.4-22.9,8.5-34.3,12.7c-2.9,1-5.9,1.6-8.9,2.4c0,0,0,0,0,0
		c0.2,0.4-0.8,5.8-0.5,6c-2.8,2.5-2.1,2.4-2.4,1.1c-1.1-1.9-0.8-3.8-2.2-4.6c-2.7-0.6-7.1,0.9-9.8-0.3c-4-1.7-5.9,0.1-8.6,2.3
		c-1.4,1.2-3.8,2.1-5.6,1.9c-2.4-0.3-4.7-1.7-6.8-3.1c-5.4-3.6-11.2-3-17-2.1c-5.4,0.8-10.7,2.2-16.1,2.8
		c-10.6,1.1-21.5,3.8-31.6-2.7c-0.4-0.3-1.3,0.1-2.1,0.3c-0.5-0.6-1.1-1.7-2-2.5c-7.1-6.1-14.1-12.5-21.6-18.2
		c-6-4.6-12.5-8.5-18.8-12.7c-3.5-2.4-6.9-4.9-10.5-7.1c-3.4-2.1-3.9-1.6-5.5,2.1c-2.8,6.4-5.8,12.7-9.1,18.9
		c-2.6,4.7-5.8,9.1-8.6,13.7c-1.2,1.9-1.2,3.4,1.1,4.5c9.6,4.8,19.3,9.5,28.7,14.6c11.9,6.4,23.8,12.9,37.2,14.9
		c11.8,1.7,23.7,2.2,35.6,3.1c11,0.8,21.4,2.8,28.3,12.8c0.2,0.4,0.6,0.6,1,0.9c3.3,3,3.1,7.2,3.5,11c0.3,3.2-1.7,6.6-1.3,9.8
		c0.8,5.5-1.2,11.2,1.4,16.5c0.2,0.4-0.3,1.2-0.6,1.8c-0.4,1-1,1.9-1,2.9c-0.6,6.9-1.1,13.9-1.6,20.8c0,0.4,0,1.2,0.1,1.3
		c4,0.8,7.9,1.5,11.9,2.1c1.1,0.1,2.4-1,3.4-0.8c3.7,0.7,7.2,0.7,10.8-0.8c2.6-1,5.5-1.5,7.8-2.9c2.5-1.5,5.2-3.4,6.4-5.9
		c2.2-4.5,1.7-9.6,0.1-14.2c-2.6-7.3-29.8-74.9-33.9-85.3c-0.2-0.5-1.2-2.8-0.7-3l2.2-0.4c0.4,1.6,1.8,4.6,2.7,7.6
		c4.7,15.2,7.8,17.7,13.5,31.5c6.2,15.1,4.9,19,12.1,31.1c3.1,5.2,3.4,6,5.4,8.9c7.5,10.4,3.9,26.1-3.7,34.2
		c2.4-0.3,4.3-0.5,6.9-0.9c-1.2-1.1-1.7-1.6-2.5-2.3L232.2,252.3z M170.1,348c0.3,0.3,0.6,0.6,0.9,0.8c-1.8,1.9-4,3.6-5.2,5.8
		c-3.5,6.8-7.3,13.6-9.7,20.8c-3.6,10.9-9.1,20.4-17.3,28.3c-5,4.8-10.6,9.2-15.3,14.3c-8.2,8.9-15.8,18.3-23.7,27.6
		c-1.2,1.4-1.9,3-3,4.5c-2.4,3.1-4.9,6.1-7.3,9.3c-0.4,0.6-0.6,1.6-0.3,2.3c2.4,6.1,6.1,11.1,12.5,13.3c11.4,4,23.2,4.6,35,2.4
		c1-0.2,2-1.4,2.7-2.4c1.3-2,1.9-5.2,3.8-6.2c3.6-2.1,5.1-5.6,6.4-8.9c2.1-5.4,6.7-8.4,10.1-12.4c0.2-0.3,0.9-0.1,2.1-0.2
		c-0.9,1.4-1.4,2.3-2,3.2c-2.9,4.2-6,8.3-8.6,12.7c-1.7,2.9-2.8,6.2-3.8,9.4c-0.3,1,0.5,3.3,1.3,3.6c4.3,1.5,8.6,3.1,13,3.5
		c4.8,0.5,9.7-0.3,14.6-0.5c1.1,0,2.3,0,3.3,0.4c9.4,3,18.8,1.9,28-0.3c8.5-2,16.7-5.6,25.1-7.9c2.9-0.8,5-3.3,5.2-6.2
		c1.3-14.6,6-28.2,12.6-41.2c3.7-7.3,6.7-15,9.6-22.6c1.3-3.5,0.9-7.7,2.4-11c3.3-7.6,5-15.3,3.9-23.6c-0.6-4.2-1-8.5-0.5-12.6
		c0.9-8,0.5-15.7-1.6-23.4c1.2-0.8,2.2-1.6,3.3-2.3c0.1,0.5,0.3,0.9,0.3,1.3c0.9,14.7,2.2,29.3,2.5,44c0.1,7.3-1.1,14.9-2.8,22
		c-1.4,5.8-4.4,11.1-6.7,16.7c-4.1,10.2-8.2,20.4-12.3,30.6c-0.1,0.3,0,0.8,0,0.7c3.2-1.4,6.3-3.7,9.6-4c9-1,18-0.8,27,1.6
		c9.3,2.5,17.7,6.6,25.4,12.1c8.3,6,17.1,10.7,27.2,12.7c2.4,0.5,4.9,1.1,7.2,0.7c15-2.5,27.9-9.5,39-19.8c2.1-1.9,4.7-3.3,7-5.1
		c5.4-4.1,11.1-7.8,16.1-12.4c4-3.7,4.3-9.1,1.4-12.4c-2.2-2.5-4.6-4.8-7.2-6.9c-4.1-3.3-7.1-7.3-8.8-12.2c0-0.1,0.2-0.3,0.7-1.1
		c1.8,2.1,3.4,4.3,5.2,6.1c1.6,1.6,3.6,2.8,5.3,4.3c1.8,1.6,3.5,3.3,5.2,5c5.7,5.9,12.5,9,20.8,8.4c0.6,0,1.3,0,1.9,0.2
		c3.3,1.2,6.4,1.4,9.2-1.1c0.2-0.2,0.6-0.2,1-0.3c0,0.7,0,1.3,0,2.2c4.7-0.5,7.7-3.4,11-5.8c-0.2-0.3-0.3-0.6-0.5-0.9
		c-2.7,1.4-5.5,2.9-8.2,4.3c-0.1-0.2-0.2-0.4-0.3-0.6c1.4-1,2.8-2,4.9-3.4c-1.6,0-2.5,0-3,0c4-1.9,8.3-3.8,12.6-5.9
		c3.3-1.7,3.8-4,1.1-6.4c-6.3-5.6-12.7-10.9-19.1-16.5c-3.5-3.1-6.6-6.6-10.3-9.4c-7.7-6.1-14.6-13.3-23.7-17.7
		c-2.2-1-4.4-2.3-6.1-3.9c-10.5-9.3-20.6-19-31.2-28.2c-5.7-4.9-12-9.2-18.2-13.6c-1.5-1.1-3.8-1-5.5-1.9c-6.1-3.5-11.8-7.7-18-10.7
		c-8.6-4.1-15.5-10.2-22.6-16.3c-6-5.1-12.2-10-18.4-14.8c-1.9-1.5-3.6-1.7-5.8,0.2c-1.9,1.6-4.8,2.3-7.4,2.7
		c-7.7,1.1-15.5,1.7-23.2,2.7c-7.4,1-14.7,2.9-22.1,3.5c-9.5,0.7-19.1,0.4-28.6,0.7c-1.8,0.1-4,0.3-5.3,1.4
		c-3.1,2.6-5.7,5.8-8.4,8.8c-7,7.6-13.6,15.4-20.9,22.7c-10.8,10.9-24.2,18.3-36.8,26.8c-1.2,0.8-2.2,1.7-3.5,2.7
		c0.8,0.2,1.2,0.3,2.1,0.6c-2.6,1.3-4.7,2.2-6.7,3.4c-13.9,8.4-27.8,16.8-41.6,25.2c-9.5,5.8-20,10.2-28.1,18.1
		c-4.2,4.1-8.2,8.7-5.7,15.5c2.3,6.1,4,12.5,6.9,18.4c6.3,12.8,15.6,22.6,29.7,27c1.8,0.6,2.7,0.3,3.9-1.1c4-4.7,8-9.4,13.7-12.2
		c0.9-0.4,1.6-1.2,2.3-1.9c4-3.5,8-7,11.9-10.6c3.9-3.6,7.9-7.2,11.5-11.1c7.4-8,14.7-16.1,21.9-24.3c2.4-2.7,5.2-5.7,6-9
		c2.3-8.6,7-16.1,10.9-23.9C164.6,353.1,167.7,350.7,170.1,348z M210.9,91.9c-1-3.4-1.3-6.2-2.5-8.4c-7.9-14.9-15.7-29.9-24.1-44.5
		c-3.4-5.9-7.7-11.4-11.9-16.8C167.8,16,162,11,153.9,10.5c-3.7-0.3-7.5,0.3-11.1,1.1c-1.3,0.3-2.2,2.7-3.5,3
		c-3.7,1-4.8,3.6-5.3,6.8c-0.6,3.6-0.6,6.8,1.3,10.5c2.1,4.1,2.3,9.2,3.8,13.6c2.7,7.9,5.9,15.6,8.8,23.3c0.1,0.1-0.1,0.3-0.1,0.5
		c-0.5-0.2-0.9-0.4-2.4-1.2c2.7,8.6,5,16.5,7.8,24.2c1.4,3.9,3.4,7.5,5.4,11.1c0.6,1.1,2.1,2.4,3,2.3c1.1-0.2,2.2-1.6,2.8-2.7
		c0.8-1.7,1.3-3.7,1.7-5.6c0.8-4,3.7-6.1,7.2-5.1c-0.1-1.7,1.9-3,3.6-2.9c3.3,0.2,6.7,0.1,10,0.1c0-0.3,0-0.7,0-1
		c-1.5-0.1-2.9-0.1-4.4-0.2c8-0.9,15.9-1.2,23.3,2.7C206.9,91.6,208.6,91.5,210.9,91.9z M168.9,102.3c-0.7,6.5,1.3,12.2,5.1,17.2
		c3.9,5.1,8.1,10,12.2,15c4.2,5.1,8.4,9.8,15.5,11.2c2.5,0.5,3.4,0,4.9-1.4c4.9-4.7,5.6-10.8,6.3-17.1c1.3-10.8-1.1-20.7-6-30.2
		c-0.4-0.8-1.6-1.6-2.6-1.8c-5.2-1-10.4-2-15.7-2.6c-1.6-0.2-3.4,0.6-4.9,1.4C178.7,96.7,173.8,99.6,168.9,102.3z M362,140.9
		c0.3,0.8,1.5,0.6,1.5-0.3c0-5.2-1.2-10.3-2.9-15.3c-0.2-0.5-2-1-2.7-0.7c-0.7,0.3-1.5,1.8-1.3,2.4
		C358.4,131.7,360.2,136.3,362,140.9z"/>
	<path id="XMLID_138_" d="M196.3,398.8c-0.9,1.5-1.5,3-2.4,4.2c-7.3,9.5-14.6,19-21.8,28.5c-3.3,4.4-6.3,9-9.6,13.4
		c-0.6,0.7-1.7,1.1-2.5,1.6c0.1-0.9-0.1-2,0.3-2.7c6.3-8.6,12.7-17,19-25.6c4.8-6.5,9.3-13.3,14-19.8c0.4-0.5,1.2-0.9,1.9-0.9
		C195.5,397.4,195.9,398.2,196.3,398.8z"/>
	<path id="XMLID_137_" d="M210.2,378.2c-4.7,6-8.1,13.1-13.7,18.3c-0.4-0.3-0.8-0.6-1.2-1c4.7-6,9.4-12,14.1-18
		C209.7,377.8,209.9,378,210.2,378.2z"/>
	<path id="XMLID_135_" d="M218.3,363.8c1.2-3.8,2.5-7.5,3.8-11.7C223.3,354.7,223,355.7,218.3,363.8z"/>
	<path id="XMLID_134_" d="M225.7,344c-0.5,2.3-1.1,4.7-1.6,7C222.1,350.4,222.1,350.4,225.7,344z"/>
</g>
</svg>
