<?xml version="1.0" encoding="utf-8"?>
<!-- Generator: Adobe Illustrator 19.0.0, SVG Export Plug-In . SVG Version: 6.00 Build 0)  -->
<svg version="1.1" id="Layer_1" xmlns="http://www.w3.org/2000/svg" xmlns:xlink="http://www.w3.org/1999/xlink" x="0px" y="0px"
	 viewBox="0 0 430 137" style="enable-background:new 0 0 430 137;" xml:space="preserve">
<g id="XMLID_3_">
	<path id="XMLID_4_" d="M57.3,103.4c-0.3-0.2-0.4-0.3-0.3-0.5c0-0.2,0.2-0.3,0.5-0.4c0.3-0.1,0.6-0.2,0.9-0.2
		c2.4,0.1,4.9-0.1,7.4-0.5c2.5-0.4,4.7-1.1,6.7-2c0.9-0.4,1.6-0.9,2.2-1.6c0.6-0.7,1-1.5,1.3-2.3c0.2-0.8,0.2-1.7-0.1-2.6
		c-0.3-0.9-0.9-1.7-1.9-2.4c-0.6-0.5-1.5-0.9-2.8-1.4c-1.2-0.5-2.5-0.9-3.9-1.3c-1.3-0.4-2.7-0.7-4-1c-1.3-0.3-2.3-0.4-3.1-0.5
		c-0.3,0.4-0.9,1.3-2,2.7c-1,1.4-2.2,3-3.4,4.9c-1.2,1.8-2.4,3.7-3.6,5.7c-1.2,1.9-2.1,3.6-2.6,4.9c-0.5,1-0.9,1.5-1.1,1.5
		c-0.3,0-0.2-0.5,0.2-1.7c0.3-1,0.9-2.2,1.7-3.8c0.8-1.6,1.8-3.2,2.8-5c1.1-1.7,2.1-3.4,3.2-5.1c1.1-1.7,2-3.2,2.8-4.4
		c-0.3-0.1-0.6-0.2-0.9-0.2c-0.2,0-0.5-0.1-0.9-0.3c-0.4-0.1-0.7-0.3-0.9-0.5c-0.2-0.2-0.3-0.4-0.3-0.6c0-0.2,0-0.4,0.1-0.6
		c0.1-0.2,0.3-0.3,0.4-0.3c0.4,0,1.1-0.1,1.9-0.2c0.8-0.1,1.6-0.2,2.2-0.4c1.1-1.5,2.1-3,3.1-4.6c1-1.6,2-3.2,2.9-4.7
		c0.9-1.5,1.7-3,2.4-4.4c0.7-1.4,1.3-2.6,1.8-3.7c0.1-0.2,0.2-0.5,0.3-0.8c0.1-0.4,0.2-0.7,0.2-1c0-0.3,0-0.6-0.1-0.9
		c-0.1-0.3-0.3-0.4-0.6-0.5c-0.3,0-0.2-0.2,0.2-0.6c0.4-0.3,1-0.6,1.6-0.8c0.6-0.2,1.2-0.3,1.7-0.2c0.5,0.1,0.7,0.5,0.6,1.2
		c-0.1,0.7-0.4,1.6-0.9,2.7c-0.5,1.2-1.2,2.4-1.9,3.7c-0.7,1.3-1.5,2.7-2.4,4.2c-0.9,1.4-1.7,2.8-2.6,4.1c-0.8,1.3-1.6,2.5-2.3,3.6
		c-0.7,1.1-1.2,1.9-1.6,2.4c0.7-0.1,1.6-0.3,2.9-0.6c1.3-0.3,2.7-0.6,4.2-1c1.6-0.4,3.2-0.9,5-1.4c1.8-0.5,3.5-1.1,5.1-1.8
		c1.7-0.6,3.2-1.3,4.6-2.1c1.4-0.7,2.6-1.5,3.6-2.2c0.9-0.7,1.8-1.6,2.5-2.6c0.8-1,1.3-2.1,1.6-3.2c0.3-1.1,0.2-2.3-0.2-3.5
		c-0.4-1.2-1.4-2.4-2.8-3.5c-2.3-1.7-4.7-3-7.3-4.1c-2.6-1.1-5.4-1.9-8.2-2.5c-2.9-0.6-5.8-1-8.7-1.3c-3-0.2-5.9-0.4-8.9-0.4
		c-0.4,0-1.2,0-2.3-0.1c-1.1,0-2.3,0-3.7,0c-1.4,0.1-2.9,0.2-4.5,0.4c-1.6,0.2-3.2,0.6-4.6,1c-1.5,0.5-2.8,1.1-4.1,2
		c-1.2,0.8-2.1,1.9-2.8,3.1c-0.4,0.7-0.4,1.5-0.1,2.2c0.3,0.8,0.7,1.5,1.3,2.2c0.6,0.7,1.2,1.3,1.9,1.8c0.7,0.5,1.3,0.9,1.7,1.1
		c0.7,0.4,1.1,0.8,1,1.2c0,0.4-0.5,0.3-1.4-0.3c-0.8-0.5-1.7-1-2.7-1.7c-1-0.6-1.8-1.3-2.6-2.1c-0.7-0.7-1.3-1.6-1.5-2.4
		c-0.3-0.9-0.1-1.8,0.4-2.8c0.6-1.1,1.5-2,2.9-2.8c1.4-0.7,2.9-1.4,4.6-1.9c1.7-0.5,3.5-0.9,5.3-1.3c1.8-0.3,3.5-0.5,5.1-0.7
		c1.6-0.1,2.9-0.2,4-0.3c1.1,0,1.8-0.1,1.9-0.1c3.3,0,6.4,0.2,9.5,0.3c3,0.2,6,0.5,8.9,1.1c2.9,0.6,5.7,1.3,8.4,2.3
		c2.7,1,5.3,2.4,7.8,4.2c1.6,1.2,2.8,2.4,3.5,3.7c0.7,1.3,0.9,2.7,0.7,4.1c-0.2,1.4-0.8,2.7-1.7,4S90.6,73.9,89,75
		c-1.9,1.2-3.9,2.4-6.2,3.3c-2.3,1-4.5,1.8-6.8,2.6c-2.3,0.7-4.5,1.3-6.6,1.8c-2.1,0.5-4,0.9-5.6,1.2c-0.6,0.1-0.9,0.3-0.9,0.6
		c0,0.3,0.3,0.5,0.9,0.6c1.5,0.2,2.9,0.5,4.3,0.9c1.4,0.4,2.6,0.9,3.7,1.4c1.1,0.5,2.1,1.1,2.9,1.6c0.8,0.5,1.4,1,1.8,1.4
		c1.1,1.1,1.7,2.1,1.8,3.1c0.1,1-0.1,1.9-0.6,2.8c-0.5,0.9-1.2,1.7-2.1,2.4c-0.9,0.7-1.7,1.4-2.6,1.9c-1.6,1.1-3.6,1.9-6,2.5
		c-2.4,0.6-5.1,0.8-8.1,0.6C58.1,103.6,57.6,103.5,57.3,103.4z"/>
	<path id="XMLID_6_" d="M82.4,102.7c-1.2,0-1.8-0.8-1.8-2.5c0-3.4,2.7-7.8,8-13.1c2.4-2.4,4.8-4.4,6.9-5.9c2.2-1.5,4.2-2.7,6-3.4
		c0.4-0.1,0.9-0.3,1.4-0.4c0.5-0.1,1-0.2,1.5-0.2c0.6,0,1.2,0.1,1.7,0.2c0.6,0.1,1.2,0.3,1.7,0.5c0.8,0.1,1.3,0.1,1.4,0.1
		c0.9-0.1,1.5-0.5,1.9-0.9c0.1-0.1,0.2-0.1,0.4-0.1c0.2,0,0.4,0.1,0.5,0.4c0.1,0.2,0.2,0.4,0.1,0.5c-1.4,2.2-2.8,4.3-4.1,6.4
		s-2.7,4.2-4,6.4c-1,1.7-2,3.6-3,5.8c-1,2.2-1.8,4.4-2.6,6.6s-1.5,4.4-2.1,6.4s-1,3.7-1.2,5.1c0,0.2-0.1,0.5-0.1,0.6
		c0,0.2,0,0.5,0,0.7c0,1.6,0.5,2.8,1.5,3.6c1,0.8,2.4,1.2,4.1,1.2s3.4-0.3,5.1-0.9c2.5-0.9,5.9-2.9,9.9-6.2c2-1.6,3.7-3.2,5.3-4.9
		c1.6-1.7,2.9-3.3,4.1-4.8c0.4-0.5,0.7-0.7,0.9-0.7c0,0,0.1,0.1,0.1,0.2c0,0.2-0.1,0.5-0.3,0.8c-1.1,1.6-2.4,3.4-4,5.2
		c-1.6,1.8-3.4,3.6-5.6,5.5c-2,1.6-3.8,3-5.4,4c-1.6,1.1-3.1,1.8-4.4,2.3c-0.7,0.2-1.3,0.4-2,0.5c-0.7,0.1-1.4,0.2-2.2,0.2
		c-1.2,0-2.2-0.2-3.2-0.5c-1-0.4-1.8-0.8-2.6-1.3c-0.9-0.5-1.5-1.3-1.9-2.3c-0.4-1-0.5-2.1-0.5-3.3c0-1,0.3-2.4,0.6-4
		c0.4-1.7,0.8-3.5,1.4-5.4s1.2-3.8,1.9-5.7c0.7-1.9,1.3-3.5,2-5c0.8-1.7,1.6-3.3,2.4-4.8c0.8-1.5,1.6-2.9,2.4-4.1
		c0.3-0.5,0.3-0.8-0.1-0.8c0,0-0.1,0-0.2,0.1c-1.2,1.4-2.5,2.9-4.1,4.4c-1.6,1.5-3.5,3.2-5.6,5c-4.2,3.6-7.8,6.2-10.9,8
		C83.4,102.6,82.9,102.7,82.4,102.7z M84.9,97.7c0,1.2,0.4,1.7,1.3,1.7c0.3,0,0.7-0.1,1.1-0.4c2.7-1.7,5.5-3.9,8.5-6.8
		c3-2.9,6.2-6.3,9.6-10.4c0.1-0.1,0.2-0.3,0.2-0.5c0-0.5-0.3-1-0.9-1.5c-0.6-0.5-1.4-0.7-2.4-0.7c-0.5,0-1.1,0.1-1.7,0.2
		c-2.3,0.6-5.1,2.8-8.6,6.6c-1.6,1.8-3,3.6-4.1,5.3c-1.1,1.7-2,3.3-2.7,4.8C85,96.6,84.9,97.1,84.9,97.7z"/>
	<path id="XMLID_9_" d="M129.2,81.3c-1.3,0.9-2.9,1.6-4.8,2.1c1.1-0.8,2.3-1.8,3.5-2.8c1.2-1.1,2.2-2,2.7-2.8c0.5-0.8,0.7-1.4,0.8-2
		c0-0.6-0.1-1-0.4-1.3c-0.3-0.3-0.7-0.5-1.3-0.4c-0.6,0-1.2,0.2-1.9,0.6c-1.8,1-3.6,2.3-5.4,4c-1.8,1.7-3.5,3.4-5.1,5.2l-0.9,1.2
		c-1.1,1.5-2.2,3.2-3.4,5.3s-1.8,4.2-2,6.5c0,1.1,0.1,1.9,0.3,2.6c0.3,0.7,0.6,1.2,1.1,1.5c0.5,0.4,1,0.6,1.6,0.7
		c0.6,0.1,1.2,0.2,1.8,0.1c1.6-0.2,3.3-0.6,5.1-1.3c1.8-0.7,3.4-1.4,4.7-2.2c0.4-0.2,0.7-0.3,0.8-0.1c0.2,0.2,0.1,0.4-0.3,0.6
		c-0.5,0.4-1.2,0.8-1.9,1.3c-0.7,0.5-1.5,0.9-2.4,1.3c-0.9,0.4-1.8,0.8-2.7,1.2c-0.9,0.4-1.8,0.6-2.7,0.8c-0.7,0.1-1.5,0.1-2.3-0.3
		c-0.8-0.3-1.6-0.8-2.4-1.4c-0.7-0.6-1.4-1.3-1.8-2.2c-0.5-0.9-0.7-1.8-0.6-2.7c0.1-1.7,0.5-3.5,1.1-5.3c0.6-1.8,1.5-3.5,2.5-5.2
		c1-1.7,2.1-3.3,3.4-4.8c1.3-1.5,2.6-2.9,3.9-4.1c1.3-1.2,2.7-2.3,4-3.1c1.3-0.8,2.6-1.5,3.7-1.8c0.9-0.3,1.8-0.3,2.6-0.1
		c0.8,0.2,1.5,0.6,2,1.2c0.5,0.6,0.8,1.3,0.8,2.2c0,0.9-0.4,1.8-1.2,2.7C131.6,79.3,130.5,80.3,129.2,81.3z M124.3,83.3L124.3,83.3
		c0-0.1,0.1-0.1,0.1-0.1C124.4,83.2,124.4,83.3,124.3,83.3z"/>
	<path id="XMLID_12_" d="M158.9,85.4c-0.8,1.4-1.6,2.9-2.3,4.4c-0.7,1.5-1.4,3-2,4.4c-0.6,1.4-0.9,2.6-1.1,3.6
		c-0.1,0.9-0.2,1.5,0,1.9c0.1,0.4,0.3,0.6,0.5,0.7c0.2,0.1,0.5,0.1,0.9,0c0.4-0.1,0.7-0.2,1-0.3c0.3-0.1,0.7-0.3,1.2-0.5
		c0.5-0.2,0.9-0.4,1.2-0.6c0.8-0.5,1.2-0.6,1.3-0.2c0.1,0.4-0.2,0.9-0.8,1.4c-0.5,0.5-1.1,1-1.8,1.5c-0.7,0.5-1.4,0.8-2,1
		c-0.3,0.1-0.6,0-1.1-0.1c-0.4-0.2-0.8-0.5-1.2-0.8s-0.7-0.8-0.9-1.2c-0.3-0.5-0.4-0.9-0.4-1.4c0-0.9,0.1-1.9,0.3-2.9
		c0.2-1,0.5-2,0.8-3c0.3-1,0.7-1.9,1.1-2.8c0.4-0.9,0.8-1.8,1.1-2.6c0.3-0.7,0.3-1.3,0-1.8c-0.3-0.5-0.9-0.3-1.7,0.6
		c-1.2,1.2-2.7,2.6-4.5,4.4c-1.8,1.8-3.7,3.5-5.6,5.2c-1.9,1.7-3.6,3.2-5.2,4.5c-1.6,1.3-2.8,2.1-3.6,2.3c-1.3,0.4-2.4,0.2-3.2-0.6
		c-0.8-0.8-1.2-1.9-1.1-3.1c0.1-1.1,0.4-2.4,0.9-3.8c0.5-1.4,1.2-2.9,1.9-4.4s1.7-3,2.6-4.6c0.9-1.6,1.9-3,2.8-4.4
		c1-1.4,1.9-2.7,2.7-3.8c0.8-1.1,1.6-2.1,2.2-2.8c0.2-0.3,0.6-0.5,1-0.6c0.4-0.1,0.8-0.1,1,0c0.3,0.1,0.5,0.3,0.5,0.6
		c0,0.3-0.1,0.8-0.6,1.3c-1.1,1.3-2.3,2.9-3.5,4.7c-1.2,1.8-2.4,3.6-3.5,5.4c-1.1,1.8-2.1,3.6-3,5.3c-0.9,1.7-1.5,3.2-1.8,4.5
		c-0.6,2-0.6,3.2,0,3.8c0.6,0.6,1.5,0.5,2.7-0.2c1.9-1.2,3.9-2.7,5.9-4.6c2.1-1.9,4.2-3.9,6.2-5.9c2-2.1,4-4.1,5.9-6
		c1.9-2,3.5-3.6,5-4.9c0.4-0.4,0.8-0.6,1.2-0.4c0.3,0.1,0.6,0.4,0.8,0.8c0.2,0.4,0.3,0.8,0.3,1.3c0,0.5,0,0.8-0.2,1
		C160.5,82.7,159.7,84,158.9,85.4z"/>
	<path id="XMLID_16_" d="M263.4,53.5c-2.9-0.4-6.1-1-9.8-1.6c-1.5,2.4-3.1,5.1-4.8,8.1c-1.7,3-3.4,6-5.1,9.2c-1.7,3.2-3.4,6.3-5,9.5
		c-1.6,3.2-3.1,6.3-4.5,9.2c-1.4,3-2.6,5.7-3.6,8.2c-1,2.5-1.8,4.7-2.3,6.6c-0.2,0.9-0.3,1.8-0.1,2.5c0.2,0.8,0.4,1.4,0.6,1.9
		c0.1,0.4,0.1,0.7-0.1,1c-0.2,0.3-0.5,0.5-0.9,0.6c-0.3,0.1-0.7,0-1-0.2c-0.3-0.2-0.5-0.7-0.5-1.3c0-1.6,0.3-3.8,1.2-6.5
		c0.8-2.8,2-5.8,3.3-9.3c1.4-3.4,3-7,4.8-10.8c1.8-3.8,3.6-7.5,5.4-11.1c1.8-3.6,3.6-7,5.3-10.2c1.7-3.2,3.2-5.9,4.5-8.1
		c-3.4-0.5-7-1.1-10.7-1.6c-3.7-0.5-7.4-1-11-1.3c-3.6-0.4-7.1-0.6-10.4-0.8s-6.2-0.1-8.8,0.2c-1,0.1-2.1,0.3-3.4,0.6
		c-1.3,0.3-2.5,0.8-3.5,1.4c-1,0.6-1.8,1.5-2.3,2.6c-0.5,1.1-0.5,2.4,0.2,4c0.8,1.9,1.8,3.9,3.1,5.8c1.3,2,2.5,3.6,3.6,5
		c0.4,0.6,0.7,1,0.9,1.3c0.1,0.3,0.2,0.4,0.1,0.4c-0.1,0-0.3,0-0.5-0.2c-0.3-0.2-0.5-0.4-0.8-0.7c-1.7-1.7-3.1-3.3-4.2-4.8
		c-1.2-1.5-2.2-3.1-3.2-4.9c-0.9-1.6-1.1-3.1-0.7-4.5c0.5-1.4,1.3-2.6,2.4-3.6c1.2-1,2.5-1.9,3.9-2.6c1.5-0.7,2.8-1.1,3.9-1.4
		c1.9-0.4,4.5-0.6,7.8-0.5c3.3,0,6.9,0.2,10.8,0.5c3.9,0.3,8,0.6,12.2,1.1s8.3,0.9,12.2,1.3c0.4-0.5,0.7-1,1-1.4
		c0.3-0.4,0.5-0.7,0.8-1c0.2-0.2,0.3-0.4,0.2-0.6c-0.1-0.2-0.2-0.3-0.4-0.3c-0.2,0-0.5,0.1-0.9,0.2c-0.3,0.1-0.6,0.2-0.9,0.3
		c-0.5,0.2-0.8,0.2-0.8-0.1c0-0.2,0.2-0.5,0.6-0.7c0.6-0.5,1.4-1,2.4-1.7s1.9-1,2.6-1.2c0.7-0.1,1.2,0.1,1.5,0.6
		c0.3,0.5,0.3,1.1-0.1,1.7c-0.9,1.4-1.8,2.9-3,4.4c3.3,0.4,6.3,0.7,9,0.9c2.7,0.2,4.8,0.4,6.5,0.4c0.8,0,1.4-0.2,1.6-0.6
		c0.3-0.4,0.3-0.9,0.3-1.3c-0.1-0.5-0.2-0.9-0.3-1.2c-0.1-0.3-0.2-0.8-0.5-1.3c-0.4-1-0.4-1.5-0.2-1.7c0.3-0.1,0.7,0.2,1.2,1.1
		c0.1,0.2,0.3,0.6,0.5,1c0.2,0.4,0.4,0.9,0.6,1.4c0.2,0.5,0.3,1,0.3,1.6c0,0.6-0.1,1.1-0.3,1.6c-0.2,0.2-0.4,0.6-0.6,1
		c-0.2,0.4-0.5,0.8-0.9,1.1c-0.5,0.4-0.9,0.7-1.3,1c-0.4,0.3-0.8,0.3-1.4,0.3C268.5,54.2,266.3,53.9,263.4,53.5z"/>
	<path id="XMLID_18_" d="M240.1,104.2c-0.4-0.1-0.7-0.3-1-0.5c-0.3-0.2-0.6-0.5-0.8-0.9c-0.2-0.3-0.3-0.7-0.3-1.1
		c0.1-4,3.3-9.9,9.6-17.6c0.2-0.3,0.1-0.6-0.1-0.6c-0.4-0.2-0.9-0.5-1.3-0.8c-0.4-0.3-0.6-0.6-0.6-0.9c0-0.1,0.1-0.3,0.2-0.6
		c0.1-0.2,0.8-0.4,1.9-0.4c1.8,0,2.7-0.1,2.7-0.1c0.2,0,0.5-0.1,0.8-0.3c1.1-1,2.1-1.5,3.2-1.6c0.8,0,1.8,0.4,3.2,1.3
		c0.1,0,0.2,0.1,0.3,0.1c0.1,0,0.2,0.1,0.3,0.1c1.1,0,2.4,0.1,4,0.1c1.6,0,3.3,0.1,5.4,0.1c0.7,0.1,1.1,0.2,1.1,0.3
		c0,0.3-0.4,0.4-1.1,0.4c-1.5,0-2.4,0.3-2.9,0.9c-0.1,0.1-0.1,0.3,0,0.4c0,0.1,0.1,0.3,0.1,0.4c0,0.1,0.1,0.3,0.1,0.4
		c-0.1,1.8-0.9,3.8-2.3,5.9s-3.6,4.4-6.4,6.8c-5.6,4.8-10.5,7.6-14.8,8.2C240.8,104.4,240.5,104.3,240.1,104.2z M239.7,102.1
		c0,1.2,0.8,1.6,2.3,1.3c3.3-0.5,7.2-2.9,11.7-7.1c4.8-4.3,7.6-8.2,8.3-11.7c0.3-1.4-0.6-2.3-2.7-2.5c-1.2-0.1-2.2-0.2-3.2,0
		c-1,0.1-1.9,0.3-2.8,0.7c-0.1,0-0.5,0.2-1.2,0.6c-5.1,4.8-9.1,10.4-11.9,17.1C239.9,101,239.7,101.6,239.7,102.1z"/>
	<path id="XMLID_21_" d="M283.7,81.3c-1.3,0.9-2.9,1.6-4.8,2.1c1.1-0.8,2.3-1.8,3.5-2.8c1.2-1.1,2.2-2,2.7-2.8
		c0.5-0.8,0.7-1.4,0.8-2c0-0.6-0.1-1-0.4-1.3c-0.3-0.3-0.7-0.5-1.3-0.4c-0.6,0-1.2,0.2-1.9,0.6c-1.8,1-3.6,2.3-5.4,4
		c-1.8,1.7-3.5,3.4-5.1,5.2l-0.9,1.2c-1.1,1.5-2.2,3.2-3.4,5.3c-1.2,2-1.8,4.2-2,6.5c0,1.1,0.1,1.9,0.3,2.6c0.3,0.7,0.6,1.2,1.1,1.5
		c0.5,0.4,1,0.6,1.6,0.7c0.6,0.1,1.2,0.2,1.8,0.1c1.6-0.2,3.3-0.6,5.1-1.3c1.8-0.7,3.4-1.4,4.7-2.2c0.4-0.2,0.7-0.3,0.8-0.1
		c0.2,0.2,0.1,0.4-0.3,0.6c-0.5,0.4-1.2,0.8-1.9,1.3c-0.7,0.5-1.5,0.9-2.4,1.3s-1.8,0.8-2.7,1.2c-0.9,0.4-1.8,0.6-2.7,0.8
		c-0.7,0.1-1.5,0.1-2.3-0.3c-0.8-0.3-1.6-0.8-2.4-1.4c-0.7-0.6-1.4-1.3-1.8-2.2c-0.5-0.9-0.7-1.8-0.6-2.7c0.1-1.7,0.5-3.5,1.1-5.3
		c0.6-1.8,1.5-3.5,2.5-5.2c1-1.7,2.1-3.3,3.4-4.8c1.3-1.5,2.6-2.9,3.9-4.1s2.7-2.3,4-3.1c1.3-0.8,2.6-1.5,3.7-1.8
		c0.9-0.3,1.8-0.3,2.6-0.1c0.8,0.2,1.5,0.6,2,1.2c0.5,0.6,0.8,1.3,0.8,2.2c0,0.9-0.4,1.8-1.2,2.7C286.1,79.3,285,80.3,283.7,81.3z
		 M278.8,83.3L278.8,83.3c0-0.1,0.1-0.1,0.1-0.1C278.9,83.2,278.9,83.3,278.8,83.3z"/>
	<path id="XMLID_24_" d="M314.3,82.8c-1.1,0.7-2.3,1.2-3.6,1.4c-0.8,0.1-2,0.2-3.6,0.3c-1.6,0-3.4,0.1-5.3,0.1
		c-1.9,0-3.8,0.1-5.8,0.1c-1.9,0-3.6,0-5,0c-0.5,0.7-1.1,1.5-1.7,2.4c-0.6,0.9-1.2,1.8-1.7,2.8s-1,2.1-1.4,3.1
		c-0.4,1.1-0.6,2.2-0.6,3.3c0,1.1,0.1,1.9,0.3,2.6c0.3,0.7,0.6,1.2,1.1,1.5c0.5,0.4,1,0.6,1.6,0.7c0.6,0.1,1.2,0.2,1.8,0.1
		c1.6-0.2,3.3-0.7,5.1-1.4c1.8-0.7,3.3-1.4,4.6-2.1c0.4-0.2,0.7-0.3,0.9-0.1c0.2,0.2,0.1,0.4-0.3,0.6c-0.5,0.4-1.2,0.8-1.9,1.3
		c-0.7,0.5-1.5,0.9-2.4,1.3s-1.8,0.8-2.7,1.2c-0.9,0.4-1.8,0.6-2.7,0.8c-0.7,0.1-1.5,0.1-2.4-0.3c-0.9-0.3-1.7-0.8-2.4-1.4
		c-0.7-0.6-1.3-1.4-1.8-2.2c-0.5-0.8-0.7-1.7-0.6-2.7c0.1-2.6,0.9-5.3,2.2-7.9c1.3-2.6,2.9-5.1,4.8-7.4c1.9-2.3,3.9-4.2,6-5.9
		c2.1-1.7,4-2.8,5.7-3.5c0.9-0.3,1.7-0.3,2.4,0.1s1.3,0.9,1.7,1.6c0.4,0.7,0.6,1.5,0.7,2.3c0.1,0.9-0.1,1.7-0.5,2.4
		c-0.7,1.3-2,2.5-3.9,3.4c-1.9,0.9-4,1.6-6.4,1.9c1.3,0,2.6,0,4,0c1.4,0,2.7,0,4,0c1.2,0,2.4-0.1,3.5-0.1c1.1,0,2-0.1,2.8-0.2
		c1-0.1,2-0.4,3.1-0.9c1-0.5,1.8-1.1,2.4-1.6c0.2-0.3,0.4-0.5,0.6-0.4c0.2,0.1,0.1,0.3-0.1,0.6C316.2,81.5,315.4,82.1,314.3,82.8z
		 M305.9,75.5c0-0.6-0.1-1-0.4-1.3c-0.3-0.3-0.7-0.5-1.3-0.4c-0.6,0-1.2,0.2-1.9,0.6c-1.8,1-3.6,2.3-5.4,4c-1.8,1.7-3.6,3.4-5.2,5.1
		c1.2,0,2.5-0.1,3.9-0.4c1.3-0.3,2.6-0.7,3.8-1.3c1.2-0.6,2.3-1.2,3.3-1.9c1-0.7,1.8-1.5,2.3-2.4C305.6,76.8,305.8,76.1,305.9,75.5z
		"/>
	<path id="XMLID_27_" d="M316.4,79.3c0.1-0.3,0.2-0.5,0.3-0.6c0.1-0.1,0,0-0.2,0.4v-0.5c17.9-40.3,36.9-61.1,57.2-62.4
		c7-0.4,13.1,1.7,18.4,6.3c5.4,4.6,7.8,9.7,7.3,15.4c-0.1,1.7-0.7,3.5-1.6,5.3c-4.6,8.7-16.8,16.8-36.7,24.3
		c-6.9,2.6-13.9,4.9-21,6.9c-7.1,2-14.2,3.6-21.5,5c-0.7,1.2-1.4,2.8-2.2,4.8c-0.8,1.9-1.7,4.2-2.7,7c-0.4,0.8-0.7,1.6-0.9,2.3
		c-0.2,0.7-0.4,1.3-0.6,1.9c0.8-0.8,2-1.7,3.6-2.8c1.6-1.1,3.6-2.4,5.9-3.9c2.9-1.9,5.4-3.5,7.5-4.7c2.1-1.2,3.9-2.1,5.3-2.7
		c0.4-0.2,0.9-0.3,1.4-0.3c1.6,0,2.4,0.9,2.4,2.7c-0.1,0.3-0.2,0.7-0.4,1c-0.1,0.4-0.3,0.7-0.5,1.1c-2.8,4.7-7.1,8.7-13,12.2
		c-5.9,3.6-11.3,5.3-16.3,5.2c-0.1,0-0.2,0-0.4-0.1c-0.4-0.1-0.7-0.3-1-0.6c-0.3-0.3-0.4-0.7-0.4-1.1c0.2-0.5,0.5-1.1,1-1.7
		c1-2.2,2.1-4.9,3.5-8.1c1.3-3.2,2.9-6.8,4.7-10.9c0.1,0,0.2-0.1,0.2-0.4v-0.2c0,0,0-0.1,0.1-0.1c0,0,0.1-0.1,0.1-0.1l0.1-0.1V80
		c0.1-0.2,0.2-0.4,0.2-0.5c0,0,0,0.1-0.1,0.1C316.3,79.4,316.4,79.3,316.4,79.3z M311,99.7L311,99.7c0,0.1,0.1,0.1,0.1,0.1
		c0,0-0.1,0.1-0.1,0.1c0,0,0,0.1-0.1,0.1l0.1,0.3c-0.1,0.7,0,1,0.4,1.1c0.5,0.1,1.6,0,3.3-0.3c1.8-0.4,3.6-1,5.4-1.9
		c1.8-0.9,3.6-2,5.5-3.3c3.9-2.9,6.5-5.8,7.8-8.8l0.3-1.2c0.1-1.5-0.4-2.2-1.6-2.2c-1.1,0-4.2,1.7-9.4,5.2c-2.1,1.4-3.9,2.7-5.5,3.8
		c-1.5,1.2-2.9,2.1-4,3C312.2,96.7,311.4,98,311,99.7z M397.2,39.1c0.2-0.7,0.4-1.5,0.5-2.3c0.4-5.1-1.7-9.6-6.4-13.5
		c-4.8-4-10.7-5.9-17.5-5.7c-11.7,0.5-23.5,9.2-35.4,26.1c-7.4,10.3-13.8,21.9-19.2,34.8c17.6-3.6,33.2-8.4,46.9-14.3
		c16.3-7.2,26.4-14.8,30.4-22.8C396.7,40.6,397,39.8,397.2,39.1z"/>
	<path id="XMLID_15_" d="M183.5,94.1c0.5-1.4,1.2-2.7,1.9-4.2c0.7-1.4,1.4-2.8,2.2-4.2c0.8-1.4,1.5-2.5,2.1-3.5
		c0.1-0.2,0.2-0.6,0.2-1c0-0.4-0.1-0.8-0.3-1.2c-0.2-0.4-0.4-0.6-0.7-0.8c-0.3-0.1-0.7,0-1.1,0.4c-1.4,1.2-2.9,2.8-4.7,4.6
		c-1.8,1.9-3.6,3.8-5.5,5.7c-1.9,1.9-3.9,3.8-5.8,5.6c-2,1.8-3.8,3.2-5.6,4.3c-0.2,0.1-0.4,0.2-0.7,0.3c-0.6,0.3-1.2,0.5-2,0.5
		c-1.1,0-2.1-0.4-2.7-1c0,0,0,0,0,0c-0.5,0-0.2,0.4-0.2,0.7c0.1,0.2,0.1,0.4,0.2,0.5c0.2,0.4,0.4,0.7,0.7,1c0.8,0.8,1.8,1,3,0.6
		c0.7-0.2,1.8-1,3.4-2.2c1.5-1.2,3.2-2.7,4.9-4.3c1.8-1.6,3.5-3.2,5.3-4.9c1.7-1.7,3.2-3,4.2-4.1c0.8-0.8,1.4-1,1.6-0.6
		c0.3,0.4,0.3,1,0,1.7c-0.3,0.8-0.7,1.6-1.1,2.5c-0.4,0.9-0.7,1.8-1.1,2.7c-0.3,0.9-0.6,1.8-0.8,2.8c-0.2,1-0.3,1.9-0.3,2.7
		c0,0.5,0.1,0.9,0.4,1.3c0.2,0.4,0.5,0.8,0.9,1.2c0.3,0.3,0.7,0.6,1.1,0.8c0.4,0.2,0.7,0.2,1,0.1c0.6-0.2,1.2-0.6,1.9-1
		c0.7-0.4,1.2-0.9,1.7-1.4c0.5-0.5,0.8-0.9,0.7-1.3c-0.1-0.4-0.5-0.3-1.2,0.2c-0.3,0.2-0.6,0.4-1.1,0.6c-0.5,0.2-0.8,0.4-1.2,0.4
		c-0.3,0.1-0.6,0.2-1,0.3c-0.3,0.1-0.6,0.1-0.8,0c-0.2-0.1-0.4-0.3-0.5-0.6c-0.1-0.4-0.1-1,0-1.8C182.6,96.6,183,95.5,183.5,94.1z"
		/>
</g>
</svg>
